<svg xmlns="http://www.w3.org/2000/svg" fill="none" aria-labelledby="footerLogoTitle" class="h-8 text-primary" viewBox="0 0 185 36">
  <g fill="#02018C" fill-rule="evenodd" clip-rule="evenodd">
    <path d="M182.907 8.94786h.328c.28 0 .524-.01212.524-.33937 0-.27877-.231-.31513-.438-.31513h-.414v.6545Zm-.317-.92114h.779c.475 0 .706.19392.706.58177 0 .37573-.231.52117-.535.55753l.572.90898h-.341l-.548-.88473h-.328v.88473h-.317V8.02672h.012Zm.682 2.53318c.791 0 1.412-.65454 1.412-1.51508 0-.8363-.621-1.49079-1.412-1.49079-.791 0-1.424.65449-1.424 1.49079s.621 1.51508 1.424 1.51508Zm0-3.2604c.937 0 1.728.75146 1.728 1.74532 0 .99388-.791 1.76958-1.728 1.76958-.962 0-1.741-.7878-1.741-1.74534v-.02424c0-.99386.791-1.74532 1.741-1.74532ZM32.5619 14.0627c.8764-1.4545 2.2032-1.6848 2.8484-1.6848.5964 0 1.1442.1818 1.3268.2788 1.2781.6545 1.8746 2.012 2.2519 3.4179.6817 2.6665.6452 7.054.6452 7.3449.0487 2.3392-.0487 7.1995-1.4607 9.3932-.6208.9697-1.692 1.5636-2.8484 1.5878-.3652 0-1.0104-.0485-1.7407-.509-1.1929-.7515-1.692-2.109-2.0207-3.4543-.5964-2.6665-.5964-6.5935-.5964-7.054 0-2.4726.1825-7.054 1.6068-9.3084m7.6931-1.8787c-1.972-1.1272-3.944-1.212-4.7717-1.212-5.0395 0-7.7418 3.4179-8.7035 4.9087-1.8137 2.8483-2.0693 5.7935-2.1058 7.2358-.3287 2.6301-2.5198 8.9327-9.446 8.9327-3.737 0-5.356-1.8787-6.23243-3.2482-.54777-.8-.92512-1.6484-1.20509-2.5453-.51125-1.4666-1.10771-4.3754-1.10771-8.2418 0-3.8664.54777-10.87191 3.96833-13.55049 1.1564-.94538 2.7631-1.40595 4.2969-1.40595 2.2641 0 3.737.8969 4.4309 1.40595 2.7266 1.87864 3.5057 4.70267 3.8343 5.79349.1826.6545.3165 1.2726.4626 1.9271h1.5703V.90002h-1.059L22.5803 4.524c-.3287-.32725-1.0103-1.12719-2.0815-1.83016C17.8573.94851 15.0941.90003 13.9864.90003c-3.0432 0-5.95244.79993-8.30177 2.72706C2.34932 6.31779 1.2903 9.94176.92513 11.3962.04868 14.6929 0 17.5654 0 18.8381c0 1.9756 0 8.7993 4.9421 13.4171 1.339 1.2726 4.15088 3.4785 8.813 3.4785 6.7802 0 10.079-4.2178 11.564-7.8903.8765 2.8968 2.6537 5.4299 5.4656 6.848 1.8746.9817 3.7126 1.0787 4.4917 1.0787 6.3663 0 9.1173-5.6117 9.8112-7.3813.779-2.1089.8277-4.1209.8277-4.9087.0487-4.3875-1.6555-9.0175-5.636-11.2718"/>
    <path d="M132.927 22.5343c0 4.7632-.462 8.2175-1.74 9.9023-.621.909-1.644 1.4423-2.751 1.4423-2.058 0-2.837-1.5878-3.117-2.1938-.827-1.7332-.961-3.927-1.01-4.3876-.085-1.4059-.183-2.7997-.183-4.2057 0-1.2605.049-2.4725.134-3.6846.183-2.1937.548-5.8419 2.934-6.9085.463-.194.962-.2909 1.461-.2788 1.874 0 2.836 1.2605 3.432 2.9816.877 2.618.828 7.054.828 7.3328m1.023-10.5083c-.779-.4727-2.24-1.212-4.492-1.212-2.97 0-4.346 1.3574-5.222 2.2907l-.049-11.01736h-8.034v1.39383c.682 0 1.132.15757 1.437.54542.608.7757.499 1.87864.547 3.32096V33.5031c-2.641 0-3.359-.0969-3.359-2.8846V18.4982c0-1.2241-.049-2.1574-.463-3.3452-.256-.8484-.706-1.6241-1.339-2.2544-.925-.8969-2.532-1.8786-5.441-1.8786-1.059 0-3.603 0-5.587 2.3513-.366.4727-.828 1.0787-1.108 1.5514-.365-.7999-.597-1.1272-.8765-1.4544-.7425-.9817-2.3493-2.4483-5.4046-2.4483-4.0657 0-5.8186 2.7755-6.5976 3.9512 0 0-.2922-2.921-.9738-3.6118H80.597v1.3938c1.6433 0 1.9963.8484 1.9963 3.624v14.2292c0 2.4483-1.1686 2.824-2.3128 2.8846-1.3999-.0606-2.5684-.4727-2.5684-3.2967V11.3594h-6.1837v15.7442c-.0487 1.8423-.1339 2.5938-.6452 3.4301-.3652.6666-1.2903 1.9392-3.3231 1.9392-2.0329 0-2.958-1.3696-3.2258-2.1695-.3287-.8-.3287-2.2059-.3652-3.0543V11.3594h-8.1313v1.3938c1.5946 0 1.9963.7515 1.9963 3.5391v10.5326c0 1.6483.0974 2.3028.3287 3.1512.9616 3.3937 3.9683 5.2724 7.2427 5.2724 4.65 0 6.6341-3.1392 7.0601-4.3391 0 0 .0974 3.4664.5965 3.9754H88.777V18.4497c0-1.5998 0-3.1028 1.5703-4.0481.6208-.4 1.339-.6061 2.0815-.6061.7426 0 1.4364.194 2.0329.6545 1.1564.8969 1.1564 2.4483 1.1564 3.7694v12.6779c-.0487 2.218-.1339 2.6058-2.4467 2.6058v1.3939H104.2v-1.3939c-.962 0-2.447 0-2.447-2.5573V18.3649c.049-.7999.049-1.6484.329-2.3513.28-.8485 1.107-2.2181 3.274-2.2181 3.043 0 3.189 2.6301 3.238 3.5755 0 .3273.049.6182.049.9454v12.593c-.049 1.1757-.524 2.5937-2.447 2.5937v1.3939h13.244l3.189-3.9149c1.096 2.8968 3.25 4.2542 6.184 4.2542 3.567 0 5.636-1.6362 6.646-2.5695 3.53-3.3573 3.749-8.169 3.749-9.6598 0-4.1573-1.509-8.7388-5.27-10.9689m45.769 12.2779c-1.144-1.5393-3.847-2.9453-5.405-3.8301-.779-.3757-1.509-.7878-2.24-1.1635-1.326-.703-3.067-1.4908-3.067-3.321 0-.3272.049-1.0302.548-1.6847 1.144-1.5877 3.116-1.6847 3.664-1.6847 2.933 0 4.029 2.0604 4.394 3.127.231.5576.414 1.309.596 2.618h1.412v-7.4176h-.912l-1.193 1.8059c-.962-.7999-2.52-1.9635-5.454-1.9635-.864 0-5.307.1455-7.279 3.5513-.523.9454-.791 1.9998-.779 3.0785 0 1.6363.596 2.8968.913 3.3573.499.7879 1.327 1.5878 2.982 2.5696 3.25 1.9634 5.904 3.224 6.914 4.436.633.7393.682 1.4908.682 1.8665 0 1.212-.682 2.3392-1.692 3.0422-.365.2788-1.278.7515-2.52.7515-1.509 0-4.078-.7515-5.258-4.3027-.366-1.0303-.5-2.1938-.548-2.5211h-1.424v6.8601c-1.461-.0363-2.703-.6908-2.703-3.624V11.3472h-6.183v15.7443c-.049 1.8423-.134 2.5937-.646 3.4422-.365.6545-1.29 1.9392-3.323 1.9392s-2.958-1.3696-3.225-2.1695c-.329-.8-.329-2.2059-.366-3.0543V11.3715h-8.131v1.3938c1.595 0 1.996.7515 1.996 3.5391V26.837c0 1.6483.098 2.3028.329 3.1513.962 3.3936 3.968 5.2723 7.243 5.2723 4.65 0 6.634-3.1392 7.06-4.3391 0 0 .097 3.4664.596 3.9876h8.326l1.315-2.1453c1.01.9817 2.751 2.4725 6.135 2.4725 1.278 0 6.001-.1818 7.742-4.6663.182-.509.499-1.3574.499-2.7028 0-1.818-.596-2.9452-1.01-3.5512M54.8761 33.2971c-.9251-.5212-.8764-1.8302-.8764-2.6786V2.09946h-8.1435V3.4933c1.4485 0 1.9963.54541 1.9963 3.527v23.5982c0 .8484.0487 2.1695-.8764 2.6786-.4626.2424-.6452.206-1.899.206v1.3939h11.6858v-1.3939c-1.2538 0-1.4364.0243-1.8989-.206"/>
  </g>
</svg>
